<?xml version="1.0" encoding="UTF-8" standalone="no"?>
<!DOCTYPE svg PUBLIC "-//W3C//DTD SVG 1.1//EN"
 "http://www.w3.org/Graphics/SVG/1.1/DTD/svg11.dtd">
<!-- Generated by graphviz version 2.47.0 (20210316.0004)
 -->
<!-- Title: dependencies Pages: 1 -->
<svg width="907pt" height="284pt"
 viewBox="0.00 0.00 907.00 284.00" xmlns="http://www.w3.org/2000/svg" xmlns:xlink="http://www.w3.org/1999/xlink">
<g id="graph0" class="graph" transform="scale(1 1) rotate(0) translate(4 280)">
<title>dependencies</title>
<polygon fill="white" stroke="transparent" points="-4,4 -4,-280 903,-280 903,4 -4,4"/>
<text text-anchor="start" x="428.51" y="-42.4" font-family="Times-12" font-weight="bold" font-size="14.00">Legend</text>
<polygon fill="#ffffb3" stroke="transparent" points="215.5,-10 215.5,-30 235.5,-30 235.5,-10 215.5,-10"/>
<text text-anchor="start" x="239.13" y="-15.4" font-family="Times-12" font-size="14.00"> &#160;Declarations</text>
<polygon fill="#8dd3c7" stroke="transparent" points="328.5,-10 328.5,-30 348.5,-30 348.5,-10 328.5,-10"/>
<text text-anchor="start" x="352.23" y="-15.4" font-family="Times-12" font-size="14.00"> &#160;Module</text>
<polygon fill="#80b1d3" stroke="transparent" points="414.5,-10 414.5,-30 434.5,-30 434.5,-10 414.5,-10"/>
<text text-anchor="start" x="438.28" y="-15.4" font-family="Times-12" font-size="14.00"> &#160;Bootstrap</text>
<polygon fill="#fdb462" stroke="transparent" points="511.5,-10 511.5,-30 531.5,-30 531.5,-10 511.5,-10"/>
<text text-anchor="start" x="535.17" y="-15.4" font-family="Times-12" font-size="14.00"> &#160;Providers</text>
<polygon fill="#fb8072" stroke="transparent" points="607.5,-10 607.5,-30 627.5,-30 627.5,-10 607.5,-10"/>
<text text-anchor="start" x="631.23" y="-15.4" font-family="Times-12" font-size="14.00"> &#160;Exports</text>
<g id="clust1" class="cluster">
<title>cluster_AppModule</title>
<polygon fill="none" stroke="black" stroke-dasharray="1,5" points="8,-70 8,-268 891,-268 891,-70 8,-70"/>
</g>
<g id="clust2" class="cluster">
<title>cluster_AppModule_declarations</title>
<polygon fill="none" stroke="black" points="320,-78 320,-130 883,-130 883,-78 320,-78"/>
</g>
<g id="clust7" class="cluster">
<title>cluster_AppModule_imports</title>
<polygon fill="none" stroke="black" points="168,-78 168,-130 312,-130 312,-78 168,-78"/>
</g>
<g id="clust9" class="cluster">
<title>cluster_AppModule_bootstrap</title>
<polygon fill="none" stroke="black" points="413,-208 413,-260 537,-260 537,-208 413,-208"/>
</g>
<g id="clust10" class="cluster">
<title>cluster_AppModule_providers</title>
<polygon fill="none" stroke="black" points="16,-78 16,-130 160,-130 160,-78 16,-78"/>
</g>
<!-- AppComponent -->
<g id="node1" class="node">
<title>AppComponent</title>
<polygon fill="#ffffb3" stroke="black" points="874.94,-122 769.06,-122 769.06,-86 874.94,-86 874.94,-122"/>
<text text-anchor="middle" x="822" y="-99.8" font-family="Times,serif" font-size="14.00">AppComponent</text>
</g>
<!-- AppModule -->
<g id="node5" class="node">
<title>AppModule</title>
<polygon fill="#8dd3c7" stroke="black" points="516.66,-187 513.66,-191 492.66,-191 489.66,-187 433.34,-187 433.34,-151 516.66,-151 516.66,-187"/>
<text text-anchor="middle" x="475" y="-164.8" font-family="Times,serif" font-size="14.00">AppModule</text>
</g>
<!-- AppComponent&#45;&gt;AppModule -->
<g id="edge1" class="edge">
<title>AppComponent&#45;&gt;AppModule</title>
<path fill="none" stroke="black" d="M822,-122.28C822,-143.32 822,-175 822,-175 822,-175 526.86,-175 526.86,-175"/>
<polygon fill="black" stroke="black" points="526.86,-171.5 516.86,-175 526.86,-178.5 526.86,-171.5"/>
</g>
<!-- IndexComponent -->
<g id="node2" class="node">
<title>IndexComponent</title>
<polygon fill="#ffffb3" stroke="black" points="751.71,-122 638.29,-122 638.29,-86 751.71,-86 751.71,-122"/>
<text text-anchor="middle" x="695" y="-99.8" font-family="Times,serif" font-size="14.00">IndexComponent</text>
</g>
<!-- IndexComponent&#45;&gt;AppModule -->
<g id="edge2" class="edge">
<title>IndexComponent&#45;&gt;AppModule</title>
<path fill="none" stroke="black" d="M695,-122.02C695,-139.37 695,-163 695,-163 695,-163 526.9,-163 526.9,-163"/>
<polygon fill="black" stroke="black" points="526.9,-159.5 516.9,-163 526.9,-166.5 526.9,-159.5"/>
</g>
<!-- MembersComponent -->
<g id="node3" class="node">
<title>MembersComponent</title>
<polygon fill="#ffffb3" stroke="black" points="620.2,-122 485.8,-122 485.8,-86 620.2,-86 620.2,-122"/>
<text text-anchor="middle" x="553" y="-99.8" font-family="Times,serif" font-size="14.00">MembersComponent</text>
</g>
<!-- MembersComponent&#45;&gt;AppModule -->
<g id="edge3" class="edge">
<title>MembersComponent&#45;&gt;AppModule</title>
<path fill="none" stroke="black" d="M501.36,-122.11C501.36,-122.11 501.36,-140.99 501.36,-140.99"/>
<polygon fill="black" stroke="black" points="497.86,-140.99 501.36,-150.99 504.86,-140.99 497.86,-140.99"/>
</g>
<!-- PrintShipsComponent -->
<g id="node4" class="node">
<title>PrintShipsComponent</title>
<polygon fill="#ffffb3" stroke="black" points="467.67,-122 328.33,-122 328.33,-86 467.67,-86 467.67,-122"/>
<text text-anchor="middle" x="398" y="-99.8" font-family="Times,serif" font-size="14.00">PrintShipsComponent</text>
</g>
<!-- PrintShipsComponent&#45;&gt;AppModule -->
<g id="edge4" class="edge">
<title>PrintShipsComponent&#45;&gt;AppModule</title>
<path fill="none" stroke="black" d="M450.5,-122.11C450.5,-122.11 450.5,-140.99 450.5,-140.99"/>
<polygon fill="black" stroke="black" points="447,-140.99 450.5,-150.99 454,-140.99 447,-140.99"/>
</g>
<!-- AppComponent  -->
<g id="node7" class="node">
<title>AppComponent </title>
<polygon fill="#80b1d3" stroke="black" points="529.44,-252 420.56,-252 420.56,-216 529.44,-216 529.44,-252"/>
<text text-anchor="middle" x="475" y="-229.8" font-family="Times,serif" font-size="14.00">AppComponent </text>
</g>
<!-- AppModule&#45;&gt;AppComponent  -->
<g id="edge6" class="edge">
<title>AppModule&#45;&gt;AppComponent </title>
<path fill="none" stroke="black" stroke-dasharray="1,5" d="M475,-187.11C475,-187.11 475,-205.99 475,-205.99"/>
<polygon fill="black" stroke="black" points="471.5,-205.99 475,-215.99 478.5,-205.99 471.5,-205.99"/>
</g>
<!-- AppRoutingModule -->
<g id="node6" class="node">
<title>AppRoutingModule</title>
<polygon fill="#8dd3c7" stroke="black" points="304.27,-122 301.27,-126 280.27,-126 277.27,-122 175.73,-122 175.73,-86 304.27,-86 304.27,-122"/>
<text text-anchor="middle" x="240" y="-99.8" font-family="Times,serif" font-size="14.00">AppRoutingModule</text>
</g>
<!-- AppRoutingModule&#45;&gt;AppModule -->
<g id="edge5" class="edge">
<title>AppRoutingModule&#45;&gt;AppModule</title>
<path fill="none" stroke="black" d="M240,-122.02C240,-139.37 240,-163 240,-163 240,-163 423.26,-163 423.26,-163"/>
<polygon fill="black" stroke="black" points="423.26,-166.5 433.26,-163 423.26,-159.5 423.26,-166.5"/>
</g>
<!-- ScApiService -->
<g id="node8" class="node">
<title>ScApiService</title>
<ellipse fill="#fdb462" stroke="black" cx="88" cy="-104" rx="64.26" ry="18"/>
<text text-anchor="middle" x="88" y="-99.8" font-family="Times,serif" font-size="14.00">ScApiService</text>
</g>
<!-- ScApiService&#45;&gt;AppModule -->
<g id="edge7" class="edge">
<title>ScApiService&#45;&gt;AppModule</title>
<path fill="none" stroke="black" d="M88,-122.28C88,-143.32 88,-175 88,-175 88,-175 423.22,-175 423.22,-175"/>
<polygon fill="black" stroke="black" points="423.22,-178.5 433.22,-175 423.22,-171.5 423.22,-178.5"/>
</g>
</g>
</svg>
